<?xml version="1.0" encoding="utf-8"?>
<!-- Generator: Adobe Illustrator 25.4.1, SVG Export Plug-In . SVG Version: 6.00 Build 0)  -->
<svg version="1.1" id="Futer_Block_6_Block_5_Block_4_Block_3_Block_2_Block_1_Изображение"
	 xmlns="http://www.w3.org/2000/svg" xmlns:xlink="http://www.w3.org/1999/xlink" x="0px" y="0px" viewBox="0 0 70 55"
	 style="enable-background:new 0 0 70 55;" xml:space="preserve">
<style type="text/css">
	.st0{fill:#34B9EA;}
	.st1{fill:#01A8E5;}
</style>
<path class="st0" d="M20.3,18.8c0,1.6,0.2,3.1,0.7,4.6c-6.2,2.2-13-1-15.2-7.2s1-13,7.2-15.2c1.3-0.5,2.6-0.7,4-0.7
	c4.2,0,8.1,2.2,10.3,5.9C23,8.8,20.3,13.6,20.3,18.8z"/>
<path class="st0" d="M27.2,31.3c-7.2,2.4-12,9.2-12,16.8v0.3H0v-6.9c0-8.1,6.6-14.7,14.7-14.7h4.7c1.2,0,2.4,0.1,3.6,0.4
	C24.1,28.8,25.5,30.2,27.2,31.3z"/>
<path class="st0" d="M64.8,12.2c0,6.6-5.3,11.9-11.9,11.9c-1.2,0-2.4-0.2-3.5-0.5c2.3-6.7-0.5-14-6.6-17.6
	c3.5-5.6,10.8-7.3,16.4-3.8C62.7,4.3,64.8,8.1,64.8,12.2L64.8,12.2z"/>
<path class="st0" d="M70,41.5v6.9H55.3v-0.3c0-7.6-4.8-14.3-12-16.8c1.7-1.1,3.2-2.5,4.3-4.2c1-0.2,2-0.3,3-0.3h4.7
	C63.4,26.8,70,33.3,70,41.5z"/>
<path class="st1" d="M52.3,48.1V55H18.2v-6.9c0-7.7,5.9-14,13.5-14.7h0.6h6C46.1,33.8,52.3,40.2,52.3,48.1z"/>
<circle class="st1" cx="35.3" cy="18.8" r="11.9"/>
</svg>
